<mxfile host="app.diagrams.net" agent="Mozilla/5.0 (Windows NT 10.0; Win64; x64) AppleWebKit/537.36 (KHTML, like Gecko) Chrome/132.0.0.0 Safari/537.36" version="26.1.0">
  <diagram name="Page-1" id="Gu_nQl8Pk-WOMB8ISJgY">
    <mxGraphModel>
      <root>
        <mxCell id="0" />
        <mxCell id="1" parent="0" />
        <mxCell id="2" value="GithubRepository" style="swimlane;fontStyle=1;align=center;verticalAlign=top;childLayout=stackLayout;horizontal=1;startSize=30.11764705882353;horizontalStack=0;resizeParent=1;resizeParentMax=0;resizeLast=0;collapsible=0;marginBottom=0;" vertex="1" parent="1">
          <mxGeometry x="145" y="8" width="227" height="264" as="geometry" />
        </mxCell>
        <mxCell id="3" value="+ string name" style="text;strokeColor=none;fillColor=none;align=left;verticalAlign=top;spacingLeft=4;spacingRight=4;overflow=hidden;rotatable=0;points=[[0,0.5],[1,0.5]];portConstraint=eastwest;" vertex="1" parent="2">
          <mxGeometry y="30" width="227" height="30" as="geometry" />
        </mxCell>
        <mxCell id="4" value="+ string description" style="text;strokeColor=none;fillColor=none;align=left;verticalAlign=top;spacingLeft=4;spacingRight=4;overflow=hidden;rotatable=0;points=[[0,0.5],[1,0.5]];portConstraint=eastwest;" vertex="1" parent="2">
          <mxGeometry y="60" width="227" height="30" as="geometry" />
        </mxCell>
        <mxCell id="5" value="+ string url" style="text;strokeColor=none;fillColor=none;align=left;verticalAlign=top;spacingLeft=4;spacingRight=4;overflow=hidden;rotatable=0;points=[[0,0.5],[1,0.5]];portConstraint=eastwest;" vertex="1" parent="2">
          <mxGeometry y="90" width="227" height="30" as="geometry" />
        </mxCell>
        <mxCell id="6" value="+ int stars" style="text;strokeColor=none;fillColor=none;align=left;verticalAlign=top;spacingLeft=4;spacingRight=4;overflow=hidden;rotatable=0;points=[[0,0.5],[1,0.5]];portConstraint=eastwest;" vertex="1" parent="2">
          <mxGeometry y="120" width="227" height="30" as="geometry" />
        </mxCell>
        <mxCell id="7" value="+ int forks" style="text;strokeColor=none;fillColor=none;align=left;verticalAlign=top;spacingLeft=4;spacingRight=4;overflow=hidden;rotatable=0;points=[[0,0.5],[1,0.5]];portConstraint=eastwest;" vertex="1" parent="2">
          <mxGeometry y="151" width="227" height="30" as="geometry" />
        </mxCell>
        <mxCell id="8" value="+ bool private" style="text;strokeColor=none;fillColor=none;align=left;verticalAlign=top;spacingLeft=4;spacingRight=4;overflow=hidden;rotatable=0;points=[[0,0.5],[1,0.5]];portConstraint=eastwest;" vertex="1" parent="2">
          <mxGeometry y="181" width="227" height="30" as="geometry" />
        </mxCell>
        <mxCell id="9" value="+ bool forked" style="text;strokeColor=none;fillColor=none;align=left;verticalAlign=top;spacingLeft=4;spacingRight=4;overflow=hidden;rotatable=0;points=[[0,0.5],[1,0.5]];portConstraint=eastwest;" vertex="1" parent="2">
          <mxGeometry y="211" width="227" height="30" as="geometry" />
        </mxCell>
        <mxCell id="10" style="line;strokeWidth=1;fillColor=none;align=left;verticalAlign=middle;spacingTop=-1;spacingLeft=3;spacingRight=3;rotatable=0;labelPosition=right;points=[];portConstraint=eastwest;strokeColor=inherit;" vertex="1" parent="2">
          <mxGeometry y="241" width="227" height="15" as="geometry" />
        </mxCell>
        <mxCell id="11" value="GithubUser" style="swimlane;fontStyle=1;align=center;verticalAlign=top;childLayout=stackLayout;horizontal=1;startSize=35.55555555555556;horizontalStack=0;resizeParent=1;resizeParentMax=0;resizeLast=0;collapsible=0;marginBottom=0;" vertex="1" parent="1">
          <mxGeometry x="1021" y="56" width="194" height="168" as="geometry" />
        </mxCell>
        <mxCell id="12" value="+ string username" style="text;strokeColor=none;fillColor=none;align=left;verticalAlign=top;spacingLeft=4;spacingRight=4;overflow=hidden;rotatable=0;points=[[0,0.5],[1,0.5]];portConstraint=eastwest;" vertex="1" parent="11">
          <mxGeometry y="36" width="194" height="36" as="geometry" />
        </mxCell>
        <mxCell id="13" value="+ string email" style="text;strokeColor=none;fillColor=none;align=left;verticalAlign=top;spacingLeft=4;spacingRight=4;overflow=hidden;rotatable=0;points=[[0,0.5],[1,0.5]];portConstraint=eastwest;" vertex="1" parent="11">
          <mxGeometry y="71" width="194" height="36" as="geometry" />
        </mxCell>
        <mxCell id="14" value="+ list repositories" style="text;strokeColor=none;fillColor=none;align=left;verticalAlign=top;spacingLeft=4;spacingRight=4;overflow=hidden;rotatable=0;points=[[0,0.5],[1,0.5]];portConstraint=eastwest;" vertex="1" parent="11">
          <mxGeometry y="107" width="194" height="36" as="geometry" />
        </mxCell>
        <mxCell id="15" style="line;strokeWidth=1;fillColor=none;align=left;verticalAlign=middle;spacingTop=-1;spacingLeft=3;spacingRight=3;rotatable=0;labelPosition=right;points=[];portConstraint=eastwest;strokeColor=inherit;" vertex="1" parent="11">
          <mxGeometry y="142" width="194" height="18" as="geometry" />
        </mxCell>
        <mxCell id="16" value="GithubOrganization" style="swimlane;fontStyle=1;align=center;verticalAlign=top;childLayout=stackLayout;horizontal=1;startSize=35.55555555555556;horizontalStack=0;resizeParent=1;resizeParentMax=0;resizeLast=0;collapsible=0;marginBottom=0;" vertex="1" parent="1">
          <mxGeometry x="1374" y="56" width="221" height="168" as="geometry" />
        </mxCell>
        <mxCell id="17" value="+ string name" style="text;strokeColor=none;fillColor=none;align=left;verticalAlign=top;spacingLeft=4;spacingRight=4;overflow=hidden;rotatable=0;points=[[0,0.5],[1,0.5]];portConstraint=eastwest;" vertex="1" parent="16">
          <mxGeometry y="36" width="221" height="36" as="geometry" />
        </mxCell>
        <mxCell id="18" value="+ list repositories" style="text;strokeColor=none;fillColor=none;align=left;verticalAlign=top;spacingLeft=4;spacingRight=4;overflow=hidden;rotatable=0;points=[[0,0.5],[1,0.5]];portConstraint=eastwest;" vertex="1" parent="16">
          <mxGeometry y="71" width="221" height="36" as="geometry" />
        </mxCell>
        <mxCell id="19" value="+ list members" style="text;strokeColor=none;fillColor=none;align=left;verticalAlign=top;spacingLeft=4;spacingRight=4;overflow=hidden;rotatable=0;points=[[0,0.5],[1,0.5]];portConstraint=eastwest;" vertex="1" parent="16">
          <mxGeometry y="107" width="221" height="36" as="geometry" />
        </mxCell>
        <mxCell id="20" style="line;strokeWidth=1;fillColor=none;align=left;verticalAlign=middle;spacingTop=-1;spacingLeft=3;spacingRight=3;rotatable=0;labelPosition=right;points=[];portConstraint=eastwest;strokeColor=inherit;" vertex="1" parent="16">
          <mxGeometry y="142" width="221" height="18" as="geometry" />
        </mxCell>
        <mxCell id="21" value="RepositoryService" style="swimlane;fontStyle=1;align=center;verticalAlign=top;childLayout=stackLayout;horizontal=1;startSize=34.54545454545455;horizontalStack=0;resizeParent=1;resizeParentMax=0;resizeLast=0;collapsible=0;marginBottom=0;" vertex="1" parent="1">
          <mxGeometry x="8" y="345" width="594" height="198" as="geometry" />
        </mxCell>
        <mxCell id="22" style="line;strokeWidth=1;fillColor=none;align=left;verticalAlign=middle;spacingTop=-1;spacingLeft=3;spacingRight=3;rotatable=0;labelPosition=right;points=[];portConstraint=eastwest;strokeColor=inherit;" vertex="1" parent="21">
          <mxGeometry y="52" width="594" height="8" as="geometry" />
        </mxCell>
        <mxCell id="23" value="+ list getAllRepositories()" style="text;strokeColor=none;fillColor=none;align=left;verticalAlign=top;spacingLeft=4;spacingRight=4;overflow=hidden;rotatable=0;points=[[0,0.5],[1,0.5]];portConstraint=eastwest;" vertex="1" parent="21">
          <mxGeometry y="60" width="594" height="35" as="geometry" />
        </mxCell>
        <mxCell id="24" value="+ GithubRepository getRepositoryByName(string repositoryName)" style="text;strokeColor=none;fillColor=none;align=left;verticalAlign=top;spacingLeft=4;spacingRight=4;overflow=hidden;rotatable=0;points=[[0,0.5],[1,0.5]];portConstraint=eastwest;" vertex="1" parent="21">
          <mxGeometry y="94" width="594" height="35" as="geometry" />
        </mxCell>
        <mxCell id="25" value="+ list getRepositoriesByUser(GithubUser user)" style="text;strokeColor=none;fillColor=none;align=left;verticalAlign=top;spacingLeft=4;spacingRight=4;overflow=hidden;rotatable=0;points=[[0,0.5],[1,0.5]];portConstraint=eastwest;" vertex="1" parent="21">
          <mxGeometry y="129" width="594" height="35" as="geometry" />
        </mxCell>
        <mxCell id="26" value="+ list getRepositoriesByOrganization(GithubOrganization organization)" style="text;strokeColor=none;fillColor=none;align=left;verticalAlign=top;spacingLeft=4;spacingRight=4;overflow=hidden;rotatable=0;points=[[0,0.5],[1,0.5]];portConstraint=eastwest;" vertex="1" parent="21">
          <mxGeometry y="163" width="594" height="35" as="geometry" />
        </mxCell>
        <mxCell id="27" value="UserService" style="swimlane;fontStyle=1;align=center;verticalAlign=top;childLayout=stackLayout;horizontal=1;startSize=36.888888888888886;horizontalStack=0;resizeParent=1;resizeParentMax=0;resizeLast=0;collapsible=0;marginBottom=0;" vertex="1" parent="1">
          <mxGeometry x="652" y="357" width="474" height="174" as="geometry" />
        </mxCell>
        <mxCell id="28" style="line;strokeWidth=1;fillColor=none;align=left;verticalAlign=middle;spacingTop=-1;spacingLeft=3;spacingRight=3;rotatable=0;labelPosition=right;points=[];portConstraint=eastwest;strokeColor=inherit;" vertex="1" parent="27">
          <mxGeometry y="55" width="474" height="8" as="geometry" />
        </mxCell>
        <mxCell id="29" value="+ GithubUser getUserByUsername(string username)" style="text;strokeColor=none;fillColor=none;align=left;verticalAlign=top;spacingLeft=4;spacingRight=4;overflow=hidden;rotatable=0;points=[[0,0.5],[1,0.5]];portConstraint=eastwest;" vertex="1" parent="27">
          <mxGeometry y="63" width="474" height="37" as="geometry" />
        </mxCell>
        <mxCell id="30" value="+ GithubUser getUserByEmail(string email)" style="text;strokeColor=none;fillColor=none;align=left;verticalAlign=top;spacingLeft=4;spacingRight=4;overflow=hidden;rotatable=0;points=[[0,0.5],[1,0.5]];portConstraint=eastwest;" vertex="1" parent="27">
          <mxGeometry y="100" width="474" height="37" as="geometry" />
        </mxCell>
        <mxCell id="31" value="+ list getUsersByRepository(GithubRepository repository)" style="text;strokeColor=none;fillColor=none;align=left;verticalAlign=top;spacingLeft=4;spacingRight=4;overflow=hidden;rotatable=0;points=[[0,0.5],[1,0.5]];portConstraint=eastwest;" vertex="1" parent="27">
          <mxGeometry y="137" width="474" height="37" as="geometry" />
        </mxCell>
        <mxCell id="32" value="OrganizationService" style="swimlane;fontStyle=1;align=center;verticalAlign=top;childLayout=stackLayout;horizontal=1;startSize=40.57142857142857;horizontalStack=0;resizeParent=1;resizeParentMax=0;resizeLast=0;collapsible=0;marginBottom=0;" vertex="1" parent="1">
          <mxGeometry x="1176" y="369" width="524" height="150" as="geometry" />
        </mxCell>
        <mxCell id="33" style="line;strokeWidth=1;fillColor=none;align=left;verticalAlign=middle;spacingTop=-1;spacingLeft=3;spacingRight=3;rotatable=0;labelPosition=right;points=[];portConstraint=eastwest;strokeColor=inherit;" vertex="1" parent="32">
          <mxGeometry y="61" width="524" height="8" as="geometry" />
        </mxCell>
        <mxCell id="34" value="+ GithubOrganization getOrganizationByName(string name)" style="text;strokeColor=none;fillColor=none;align=left;verticalAlign=top;spacingLeft=4;spacingRight=4;overflow=hidden;rotatable=0;points=[[0,0.5],[1,0.5]];portConstraint=eastwest;" vertex="1" parent="32">
          <mxGeometry y="69" width="524" height="41" as="geometry" />
        </mxCell>
        <mxCell id="35" value="+ list getOrganizationsByUser(GithubUser user)" style="text;strokeColor=none;fillColor=none;align=left;verticalAlign=top;spacingLeft=4;spacingRight=4;overflow=hidden;rotatable=0;points=[[0,0.5],[1,0.5]];portConstraint=eastwest;" vertex="1" parent="32">
          <mxGeometry y="109" width="524" height="41" as="geometry" />
        </mxCell>
        <mxCell id="36" value="Uses &gt;" style="curved=1;startArrow=none;endArrow=none;exitX=0.34;exitY=1;entryX=0.39;entryY=0;" edge="1" parent="1" source="2" target="21">
          <mxGeometry relative="1" as="geometry">
            <Array as="points">
              <mxPoint x="213" y="309" />
            </Array>
          </mxGeometry>
        </mxCell>
        <mxCell id="37" value="Uses &gt;" style="curved=1;startArrow=none;endArrow=none;exitX=0;exitY=0.76;entryX=1;entryY=0.04;" edge="1" parent="1" source="11" target="21">
          <mxGeometry relative="1" as="geometry">
            <Array as="points">
              <mxPoint x="743" y="309" />
            </Array>
          </mxGeometry>
        </mxCell>
        <mxCell id="38" value="Uses &gt;" style="curved=1;startArrow=none;endArrow=none;exitX=0.4;exitY=1;entryX=0.76;entryY=0;" edge="1" parent="1" source="11" target="27">
          <mxGeometry relative="1" as="geometry">
            <Array as="points">
              <mxPoint x="1081" y="309" />
            </Array>
          </mxGeometry>
        </mxCell>
        <mxCell id="39" value="Uses &gt;" style="curved=1;startArrow=none;endArrow=none;exitX=1;exitY=0.75;entryX=0.04;entryY=0;" edge="1" parent="1" source="2" target="27">
          <mxGeometry relative="1" as="geometry">
            <Array as="points">
              <mxPoint x="551" y="309" />
            </Array>
          </mxGeometry>
        </mxCell>
        <mxCell id="40" value="Uses &gt;" style="curved=1;startArrow=none;endArrow=none;exitX=0.5;exitY=1;entryX=0.55;entryY=0;" edge="1" parent="1" source="16" target="32">
          <mxGeometry relative="1" as="geometry">
            <Array as="points">
              <mxPoint x="1485" y="309" />
            </Array>
          </mxGeometry>
        </mxCell>
        <mxCell id="41" value="Uses &gt;" style="curved=1;startArrow=none;endArrow=none;exitX=0.73;exitY=1;entryX=0.26;entryY=0;" edge="1" parent="1" source="11" target="32">
          <mxGeometry relative="1" as="geometry">
            <Array as="points">
              <mxPoint x="1210" y="309" />
            </Array>
          </mxGeometry>
        </mxCell>
      </root>
    </mxGraphModel>
  </diagram>
</mxfile>
